<svg width="640" height="480" viewBox="0 0 640 480" xmlns="http://www.w3.org/2000/svg">
<rect x="0" y="0" width="640" height="480" opacity="1" fill="#FFFFFF" stroke="none"/>
<line opacity="0.1" stroke="#000000" stroke-width="1" x1="35" y1="444" x2="35" y2="5"/>
<line opacity="0.1" stroke="#000000" stroke-width="1" x1="44" y1="444" x2="44" y2="5"/>
<line opacity="0.1" stroke="#000000" stroke-width="1" x1="53" y1="444" x2="53" y2="5"/>
<line opacity="0.1" stroke="#000000" stroke-width="1" x1="62" y1="444" x2="62" y2="5"/>
<line opacity="0.1" stroke="#000000" stroke-width="1" x1="70" y1="444" x2="70" y2="5"/>
<line opacity="0.1" stroke="#000000" stroke-width="1" x1="79" y1="444" x2="79" y2="5"/>
<line opacity="0.1" stroke="#000000" stroke-width="1" x1="88" y1="444" x2="88" y2="5"/>
<line opacity="0.1" stroke="#000000" stroke-width="1" x1="96" y1="444" x2="96" y2="5"/>
<line opacity="0.1" stroke="#000000" stroke-width="1" x1="105" y1="444" x2="105" y2="5"/>
<line opacity="0.1" stroke="#000000" stroke-width="1" x1="114" y1="444" x2="114" y2="5"/>
<line opacity="0.1" stroke="#000000" stroke-width="1" x1="123" y1="444" x2="123" y2="5"/>
<line opacity="0.1" stroke="#000000" stroke-width="1" x1="131" y1="444" x2="131" y2="5"/>
<line opacity="0.1" stroke="#000000" stroke-width="1" x1="140" y1="444" x2="140" y2="5"/>
<line opacity="0.1" stroke="#000000" stroke-width="1" x1="149" y1="444" x2="149" y2="5"/>
<line opacity="0.1" stroke="#000000" stroke-width="1" x1="158" y1="444" x2="158" y2="5"/>
<line opacity="0.1" stroke="#000000" stroke-width="1" x1="166" y1="444" x2="166" y2="5"/>
<line opacity="0.1" stroke="#000000" stroke-width="1" x1="175" y1="444" x2="175" y2="5"/>
<line opacity="0.1" stroke="#000000" stroke-width="1" x1="184" y1="444" x2="184" y2="5"/>
<line opacity="0.1" stroke="#000000" stroke-width="1" x1="193" y1="444" x2="193" y2="5"/>
<line opacity="0.1" stroke="#000000" stroke-width="1" x1="201" y1="444" x2="201" y2="5"/>
<line opacity="0.1" stroke="#000000" stroke-width="1" x1="210" y1="444" x2="210" y2="5"/>
<line opacity="0.1" stroke="#000000" stroke-width="1" x1="219" y1="444" x2="219" y2="5"/>
<line opacity="0.1" stroke="#000000" stroke-width="1" x1="227" y1="444" x2="227" y2="5"/>
<line opacity="0.1" stroke="#000000" stroke-width="1" x1="236" y1="444" x2="236" y2="5"/>
<line opacity="0.1" stroke="#000000" stroke-width="1" x1="245" y1="444" x2="245" y2="5"/>
<line opacity="0.1" stroke="#000000" stroke-width="1" x1="254" y1="444" x2="254" y2="5"/>
<line opacity="0.1" stroke="#000000" stroke-width="1" x1="262" y1="444" x2="262" y2="5"/>
<line opacity="0.1" stroke="#000000" stroke-width="1" x1="271" y1="444" x2="271" y2="5"/>
<line opacity="0.1" stroke="#000000" stroke-width="1" x1="280" y1="444" x2="280" y2="5"/>
<line opacity="0.1" stroke="#000000" stroke-width="1" x1="289" y1="444" x2="289" y2="5"/>
<line opacity="0.1" stroke="#000000" stroke-width="1" x1="297" y1="444" x2="297" y2="5"/>
<line opacity="0.1" stroke="#000000" stroke-width="1" x1="306" y1="444" x2="306" y2="5"/>
<line opacity="0.1" stroke="#000000" stroke-width="1" x1="315" y1="444" x2="315" y2="5"/>
<line opacity="0.1" stroke="#000000" stroke-width="1" x1="324" y1="444" x2="324" y2="5"/>
<line opacity="0.1" stroke="#000000" stroke-width="1" x1="332" y1="444" x2="332" y2="5"/>
<line opacity="0.1" stroke="#000000" stroke-width="1" x1="341" y1="444" x2="341" y2="5"/>
<line opacity="0.1" stroke="#000000" stroke-width="1" x1="350" y1="444" x2="350" y2="5"/>
<line opacity="0.1" stroke="#000000" stroke-width="1" x1="359" y1="444" x2="359" y2="5"/>
<line opacity="0.1" stroke="#000000" stroke-width="1" x1="367" y1="444" x2="367" y2="5"/>
<line opacity="0.1" stroke="#000000" stroke-width="1" x1="376" y1="444" x2="376" y2="5"/>
<line opacity="0.1" stroke="#000000" stroke-width="1" x1="385" y1="444" x2="385" y2="5"/>
<line opacity="0.1" stroke="#000000" stroke-width="1" x1="393" y1="444" x2="393" y2="5"/>
<line opacity="0.1" stroke="#000000" stroke-width="1" x1="402" y1="444" x2="402" y2="5"/>
<line opacity="0.1" stroke="#000000" stroke-width="1" x1="411" y1="444" x2="411" y2="5"/>
<line opacity="0.1" stroke="#000000" stroke-width="1" x1="420" y1="444" x2="420" y2="5"/>
<line opacity="0.1" stroke="#000000" stroke-width="1" x1="428" y1="444" x2="428" y2="5"/>
<line opacity="0.1" stroke="#000000" stroke-width="1" x1="437" y1="444" x2="437" y2="5"/>
<line opacity="0.1" stroke="#000000" stroke-width="1" x1="446" y1="444" x2="446" y2="5"/>
<line opacity="0.1" stroke="#000000" stroke-width="1" x1="455" y1="444" x2="455" y2="5"/>
<line opacity="0.1" stroke="#000000" stroke-width="1" x1="463" y1="444" x2="463" y2="5"/>
<line opacity="0.1" stroke="#000000" stroke-width="1" x1="472" y1="444" x2="472" y2="5"/>
<line opacity="0.1" stroke="#000000" stroke-width="1" x1="481" y1="444" x2="481" y2="5"/>
<line opacity="0.1" stroke="#000000" stroke-width="1" x1="490" y1="444" x2="490" y2="5"/>
<line opacity="0.1" stroke="#000000" stroke-width="1" x1="498" y1="444" x2="498" y2="5"/>
<line opacity="0.1" stroke="#000000" stroke-width="1" x1="507" y1="444" x2="507" y2="5"/>
<line opacity="0.1" stroke="#000000" stroke-width="1" x1="516" y1="444" x2="516" y2="5"/>
<line opacity="0.1" stroke="#000000" stroke-width="1" x1="524" y1="444" x2="524" y2="5"/>
<line opacity="0.1" stroke="#000000" stroke-width="1" x1="533" y1="444" x2="533" y2="5"/>
<line opacity="0.1" stroke="#000000" stroke-width="1" x1="542" y1="444" x2="542" y2="5"/>
<line opacity="0.1" stroke="#000000" stroke-width="1" x1="551" y1="444" x2="551" y2="5"/>
<line opacity="0.1" stroke="#000000" stroke-width="1" x1="559" y1="444" x2="559" y2="5"/>
<line opacity="0.1" stroke="#000000" stroke-width="1" x1="568" y1="444" x2="568" y2="5"/>
<line opacity="0.1" stroke="#000000" stroke-width="1" x1="577" y1="444" x2="577" y2="5"/>
<line opacity="0.1" stroke="#000000" stroke-width="1" x1="586" y1="444" x2="586" y2="5"/>
<line opacity="0.1" stroke="#000000" stroke-width="1" x1="594" y1="444" x2="594" y2="5"/>
<line opacity="0.1" stroke="#000000" stroke-width="1" x1="603" y1="444" x2="603" y2="5"/>
<line opacity="0.1" stroke="#000000" stroke-width="1" x1="612" y1="444" x2="612" y2="5"/>
<line opacity="0.1" stroke="#000000" stroke-width="1" x1="621" y1="444" x2="621" y2="5"/>
<line opacity="0.1" stroke="#000000" stroke-width="1" x1="629" y1="444" x2="629" y2="5"/>
<line opacity="0.1" stroke="#000000" stroke-width="1" x1="35" y1="444" x2="634" y2="444"/>
<line opacity="0.1" stroke="#000000" stroke-width="1" x1="35" y1="439" x2="634" y2="439"/>
<line opacity="0.1" stroke="#000000" stroke-width="1" x1="35" y1="434" x2="634" y2="434"/>
<line opacity="0.1" stroke="#000000" stroke-width="1" x1="35" y1="428" x2="634" y2="428"/>
<line opacity="0.1" stroke="#000000" stroke-width="1" x1="35" y1="423" x2="634" y2="423"/>
<line opacity="0.1" stroke="#000000" stroke-width="1" x1="35" y1="417" x2="634" y2="417"/>
<line opacity="0.1" stroke="#000000" stroke-width="1" x1="35" y1="412" x2="634" y2="412"/>
<line opacity="0.1" stroke="#000000" stroke-width="1" x1="35" y1="406" x2="634" y2="406"/>
<line opacity="0.1" stroke="#000000" stroke-width="1" x1="35" y1="401" x2="634" y2="401"/>
<line opacity="0.1" stroke="#000000" stroke-width="1" x1="35" y1="395" x2="634" y2="395"/>
<line opacity="0.1" stroke="#000000" stroke-width="1" x1="35" y1="390" x2="634" y2="390"/>
<line opacity="0.1" stroke="#000000" stroke-width="1" x1="35" y1="384" x2="634" y2="384"/>
<line opacity="0.1" stroke="#000000" stroke-width="1" x1="35" y1="379" x2="634" y2="379"/>
<line opacity="0.1" stroke="#000000" stroke-width="1" x1="35" y1="373" x2="634" y2="373"/>
<line opacity="0.1" stroke="#000000" stroke-width="1" x1="35" y1="368" x2="634" y2="368"/>
<line opacity="0.1" stroke="#000000" stroke-width="1" x1="35" y1="362" x2="634" y2="362"/>
<line opacity="0.1" stroke="#000000" stroke-width="1" x1="35" y1="357" x2="634" y2="357"/>
<line opacity="0.1" stroke="#000000" stroke-width="1" x1="35" y1="351" x2="634" y2="351"/>
<line opacity="0.1" stroke="#000000" stroke-width="1" x1="35" y1="346" x2="634" y2="346"/>
<line opacity="0.1" stroke="#000000" stroke-width="1" x1="35" y1="340" x2="634" y2="340"/>
<line opacity="0.1" stroke="#000000" stroke-width="1" x1="35" y1="335" x2="634" y2="335"/>
<line opacity="0.1" stroke="#000000" stroke-width="1" x1="35" y1="329" x2="634" y2="329"/>
<line opacity="0.1" stroke="#000000" stroke-width="1" x1="35" y1="324" x2="634" y2="324"/>
<line opacity="0.1" stroke="#000000" stroke-width="1" x1="35" y1="318" x2="634" y2="318"/>
<line opacity="0.1" stroke="#000000" stroke-width="1" x1="35" y1="313" x2="634" y2="313"/>
<line opacity="0.1" stroke="#000000" stroke-width="1" x1="35" y1="307" x2="634" y2="307"/>
<line opacity="0.1" stroke="#000000" stroke-width="1" x1="35" y1="302" x2="634" y2="302"/>
<line opacity="0.1" stroke="#000000" stroke-width="1" x1="35" y1="296" x2="634" y2="296"/>
<line opacity="0.1" stroke="#000000" stroke-width="1" x1="35" y1="291" x2="634" y2="291"/>
<line opacity="0.1" stroke="#000000" stroke-width="1" x1="35" y1="285" x2="634" y2="285"/>
<line opacity="0.1" stroke="#000000" stroke-width="1" x1="35" y1="280" x2="634" y2="280"/>
<line opacity="0.1" stroke="#000000" stroke-width="1" x1="35" y1="274" x2="634" y2="274"/>
<line opacity="0.1" stroke="#000000" stroke-width="1" x1="35" y1="269" x2="634" y2="269"/>
<line opacity="0.1" stroke="#000000" stroke-width="1" x1="35" y1="263" x2="634" y2="263"/>
<line opacity="0.1" stroke="#000000" stroke-width="1" x1="35" y1="258" x2="634" y2="258"/>
<line opacity="0.1" stroke="#000000" stroke-width="1" x1="35" y1="252" x2="634" y2="252"/>
<line opacity="0.1" stroke="#000000" stroke-width="1" x1="35" y1="247" x2="634" y2="247"/>
<line opacity="0.1" stroke="#000000" stroke-width="1" x1="35" y1="241" x2="634" y2="241"/>
<line opacity="0.1" stroke="#000000" stroke-width="1" x1="35" y1="236" x2="634" y2="236"/>
<line opacity="0.1" stroke="#000000" stroke-width="1" x1="35" y1="230" x2="634" y2="230"/>
<line opacity="0.1" stroke="#000000" stroke-width="1" x1="35" y1="225" x2="634" y2="225"/>
<line opacity="0.1" stroke="#000000" stroke-width="1" x1="35" y1="220" x2="634" y2="220"/>
<line opacity="0.1" stroke="#000000" stroke-width="1" x1="35" y1="214" x2="634" y2="214"/>
<line opacity="0.1" stroke="#000000" stroke-width="1" x1="35" y1="209" x2="634" y2="209"/>
<line opacity="0.1" stroke="#000000" stroke-width="1" x1="35" y1="203" x2="634" y2="203"/>
<line opacity="0.1" stroke="#000000" stroke-width="1" x1="35" y1="198" x2="634" y2="198"/>
<line opacity="0.1" stroke="#000000" stroke-width="1" x1="35" y1="192" x2="634" y2="192"/>
<line opacity="0.1" stroke="#000000" stroke-width="1" x1="35" y1="187" x2="634" y2="187"/>
<line opacity="0.1" stroke="#000000" stroke-width="1" x1="35" y1="181" x2="634" y2="181"/>
<line opacity="0.1" stroke="#000000" stroke-width="1" x1="35" y1="176" x2="634" y2="176"/>
<line opacity="0.1" stroke="#000000" stroke-width="1" x1="35" y1="170" x2="634" y2="170"/>
<line opacity="0.1" stroke="#000000" stroke-width="1" x1="35" y1="165" x2="634" y2="165"/>
<line opacity="0.1" stroke="#000000" stroke-width="1" x1="35" y1="159" x2="634" y2="159"/>
<line opacity="0.1" stroke="#000000" stroke-width="1" x1="35" y1="154" x2="634" y2="154"/>
<line opacity="0.1" stroke="#000000" stroke-width="1" x1="35" y1="148" x2="634" y2="148"/>
<line opacity="0.1" stroke="#000000" stroke-width="1" x1="35" y1="143" x2="634" y2="143"/>
<line opacity="0.1" stroke="#000000" stroke-width="1" x1="35" y1="137" x2="634" y2="137"/>
<line opacity="0.1" stroke="#000000" stroke-width="1" x1="35" y1="132" x2="634" y2="132"/>
<line opacity="0.1" stroke="#000000" stroke-width="1" x1="35" y1="126" x2="634" y2="126"/>
<line opacity="0.1" stroke="#000000" stroke-width="1" x1="35" y1="121" x2="634" y2="121"/>
<line opacity="0.1" stroke="#000000" stroke-width="1" x1="35" y1="115" x2="634" y2="115"/>
<line opacity="0.1" stroke="#000000" stroke-width="1" x1="35" y1="110" x2="634" y2="110"/>
<line opacity="0.1" stroke="#000000" stroke-width="1" x1="35" y1="104" x2="634" y2="104"/>
<line opacity="0.1" stroke="#000000" stroke-width="1" x1="35" y1="99" x2="634" y2="99"/>
<line opacity="0.1" stroke="#000000" stroke-width="1" x1="35" y1="93" x2="634" y2="93"/>
<line opacity="0.1" stroke="#000000" stroke-width="1" x1="35" y1="88" x2="634" y2="88"/>
<line opacity="0.1" stroke="#000000" stroke-width="1" x1="35" y1="82" x2="634" y2="82"/>
<line opacity="0.1" stroke="#000000" stroke-width="1" x1="35" y1="77" x2="634" y2="77"/>
<line opacity="0.1" stroke="#000000" stroke-width="1" x1="35" y1="71" x2="634" y2="71"/>
<line opacity="0.1" stroke="#000000" stroke-width="1" x1="35" y1="66" x2="634" y2="66"/>
<line opacity="0.1" stroke="#000000" stroke-width="1" x1="35" y1="60" x2="634" y2="60"/>
<line opacity="0.1" stroke="#000000" stroke-width="1" x1="35" y1="55" x2="634" y2="55"/>
<line opacity="0.1" stroke="#000000" stroke-width="1" x1="35" y1="49" x2="634" y2="49"/>
<line opacity="0.1" stroke="#000000" stroke-width="1" x1="35" y1="44" x2="634" y2="44"/>
<line opacity="0.1" stroke="#000000" stroke-width="1" x1="35" y1="38" x2="634" y2="38"/>
<line opacity="0.1" stroke="#000000" stroke-width="1" x1="35" y1="33" x2="634" y2="33"/>
<line opacity="0.1" stroke="#000000" stroke-width="1" x1="35" y1="27" x2="634" y2="27"/>
<line opacity="0.1" stroke="#000000" stroke-width="1" x1="35" y1="22" x2="634" y2="22"/>
<line opacity="0.1" stroke="#000000" stroke-width="1" x1="35" y1="16" x2="634" y2="16"/>
<line opacity="0.1" stroke="#000000" stroke-width="1" x1="35" y1="11" x2="634" y2="11"/>
<line opacity="0.1" stroke="#000000" stroke-width="1" x1="35" y1="5" x2="634" y2="5"/>
<line opacity="0.2" stroke="#000000" stroke-width="1" x1="114" y1="444" x2="114" y2="5"/>
<line opacity="0.2" stroke="#000000" stroke-width="1" x1="201" y1="444" x2="201" y2="5"/>
<line opacity="0.2" stroke="#000000" stroke-width="1" x1="289" y1="444" x2="289" y2="5"/>
<line opacity="0.2" stroke="#000000" stroke-width="1" x1="376" y1="444" x2="376" y2="5"/>
<line opacity="0.2" stroke="#000000" stroke-width="1" x1="463" y1="444" x2="463" y2="5"/>
<line opacity="0.2" stroke="#000000" stroke-width="1" x1="551" y1="444" x2="551" y2="5"/>
<line opacity="0.2" stroke="#000000" stroke-width="1" x1="35" y1="444" x2="634" y2="444"/>
<line opacity="0.2" stroke="#000000" stroke-width="1" x1="35" y1="390" x2="634" y2="390"/>
<line opacity="0.2" stroke="#000000" stroke-width="1" x1="35" y1="335" x2="634" y2="335"/>
<line opacity="0.2" stroke="#000000" stroke-width="1" x1="35" y1="280" x2="634" y2="280"/>
<line opacity="0.2" stroke="#000000" stroke-width="1" x1="35" y1="225" x2="634" y2="225"/>
<line opacity="0.2" stroke="#000000" stroke-width="1" x1="35" y1="170" x2="634" y2="170"/>
<line opacity="0.2" stroke="#000000" stroke-width="1" x1="35" y1="115" x2="634" y2="115"/>
<line opacity="0.2" stroke="#000000" stroke-width="1" x1="35" y1="60" x2="634" y2="60"/>
<line opacity="0.2" stroke="#000000" stroke-width="1" x1="35" y1="5" x2="634" y2="5"/>
<polyline fill="none" opacity="1" stroke="#000000" stroke-width="1" points="34,5 34,444 "/>
<text x="25" y="444" dy="0.5ex" text-anchor="end" font-family="sans-serif" font-size="9.67741935483871" opacity="1" fill="#000000">
0
</text>
<polyline fill="none" opacity="1" stroke="#000000" stroke-width="1" points="29,444 34,444 "/>
<text x="25" y="390" dy="0.5ex" text-anchor="end" font-family="sans-serif" font-size="9.67741935483871" opacity="1" fill="#000000">
50
</text>
<polyline fill="none" opacity="1" stroke="#000000" stroke-width="1" points="29,390 34,390 "/>
<text x="25" y="335" dy="0.5ex" text-anchor="end" font-family="sans-serif" font-size="9.67741935483871" opacity="1" fill="#000000">
100
</text>
<polyline fill="none" opacity="1" stroke="#000000" stroke-width="1" points="29,335 34,335 "/>
<text x="25" y="280" dy="0.5ex" text-anchor="end" font-family="sans-serif" font-size="9.67741935483871" opacity="1" fill="#000000">
150
</text>
<polyline fill="none" opacity="1" stroke="#000000" stroke-width="1" points="29,280 34,280 "/>
<text x="25" y="225" dy="0.5ex" text-anchor="end" font-family="sans-serif" font-size="9.67741935483871" opacity="1" fill="#000000">
200
</text>
<polyline fill="none" opacity="1" stroke="#000000" stroke-width="1" points="29,225 34,225 "/>
<text x="25" y="170" dy="0.5ex" text-anchor="end" font-family="sans-serif" font-size="9.67741935483871" opacity="1" fill="#000000">
250
</text>
<polyline fill="none" opacity="1" stroke="#000000" stroke-width="1" points="29,170 34,170 "/>
<text x="25" y="115" dy="0.5ex" text-anchor="end" font-family="sans-serif" font-size="9.67741935483871" opacity="1" fill="#000000">
300
</text>
<polyline fill="none" opacity="1" stroke="#000000" stroke-width="1" points="29,115 34,115 "/>
<text x="25" y="60" dy="0.5ex" text-anchor="end" font-family="sans-serif" font-size="9.67741935483871" opacity="1" fill="#000000">
350
</text>
<polyline fill="none" opacity="1" stroke="#000000" stroke-width="1" points="29,60 34,60 "/>
<text x="25" y="5" dy="0.5ex" text-anchor="end" font-family="sans-serif" font-size="9.67741935483871" opacity="1" fill="#000000">
400
</text>
<polyline fill="none" opacity="1" stroke="#000000" stroke-width="1" points="29,5 34,5 "/>
<polyline fill="none" opacity="1" stroke="#000000" stroke-width="1" points="35,445 634,445 "/>
<text x="114" y="455" dy="0.76em" text-anchor="middle" font-family="sans-serif" font-size="9.67741935483871" opacity="1" fill="#000000">
0.03
</text>
<polyline fill="none" opacity="1" stroke="#000000" stroke-width="1" points="114,445 114,450 "/>
<text x="201" y="455" dy="0.76em" text-anchor="middle" font-family="sans-serif" font-size="9.67741935483871" opacity="1" fill="#000000">
0.04
</text>
<polyline fill="none" opacity="1" stroke="#000000" stroke-width="1" points="201,445 201,450 "/>
<text x="289" y="455" dy="0.76em" text-anchor="middle" font-family="sans-serif" font-size="9.67741935483871" opacity="1" fill="#000000">
0.05
</text>
<polyline fill="none" opacity="1" stroke="#000000" stroke-width="1" points="289,445 289,450 "/>
<text x="376" y="455" dy="0.76em" text-anchor="middle" font-family="sans-serif" font-size="9.67741935483871" opacity="1" fill="#000000">
0.06
</text>
<polyline fill="none" opacity="1" stroke="#000000" stroke-width="1" points="376,445 376,450 "/>
<text x="463" y="455" dy="0.76em" text-anchor="middle" font-family="sans-serif" font-size="9.67741935483871" opacity="1" fill="#000000">
0.07
</text>
<polyline fill="none" opacity="1" stroke="#000000" stroke-width="1" points="463,445 463,450 "/>
<text x="551" y="455" dy="0.76em" text-anchor="middle" font-family="sans-serif" font-size="9.67741935483871" opacity="1" fill="#000000">
0.08
</text>
<polyline fill="none" opacity="1" stroke="#000000" stroke-width="1" points="551,445 551,450 "/>
<rect x="35" y="426" width="11" height="18" opacity="1" fill="#0000FF" stroke="none"/>
<rect x="47" y="442" width="11" height="2" opacity="1" fill="#0000FF" stroke="none"/>
<rect x="59" y="442" width="11" height="2" opacity="1" fill="#0000FF" stroke="none"/>
<rect x="71" y="442" width="11" height="2" opacity="1" fill="#0000FF" stroke="none"/>
<rect x="83" y="383" width="11" height="61" opacity="1" fill="#0000FF" stroke="none"/>
<rect x="95" y="244" width="11" height="200" opacity="1" fill="#0000FF" stroke="none"/>
<rect x="107" y="199" width="10" height="245" opacity="1" fill="#0000FF" stroke="none"/>
<rect x="119" y="300" width="10" height="144" opacity="1" fill="#0000FF" stroke="none"/>
<rect x="131" y="355" width="10" height="89" opacity="1" fill="#0000FF" stroke="none"/>
<rect x="143" y="288" width="10" height="156" opacity="1" fill="#0000FF" stroke="none"/>
<rect x="155" y="252" width="10" height="192" opacity="1" fill="#0000FF" stroke="none"/>
<rect x="167" y="350" width="10" height="94" opacity="1" fill="#0000FF" stroke="none"/>
<rect x="179" y="308" width="10" height="136" opacity="1" fill="#0000FF" stroke="none"/>
<rect x="191" y="281" width="10" height="163" opacity="1" fill="#0000FF" stroke="none"/>
<rect x="203" y="342" width="10" height="102" opacity="1" fill="#0000FF" stroke="none"/>
<rect x="215" y="349" width="10" height="95" opacity="1" fill="#0000FF" stroke="none"/>
<rect x="227" y="340" width="10" height="104" opacity="1" fill="#0000FF" stroke="none"/>
<rect x="239" y="330" width="10" height="114" opacity="1" fill="#0000FF" stroke="none"/>
<rect x="251" y="323" width="10" height="121" opacity="1" fill="#0000FF" stroke="none"/>
<rect x="263" y="325" width="10" height="119" opacity="1" fill="#0000FF" stroke="none"/>
<rect x="275" y="345" width="10" height="99" opacity="1" fill="#0000FF" stroke="none"/>
<rect x="287" y="333" width="10" height="111" opacity="1" fill="#0000FF" stroke="none"/>
<rect x="299" y="323" width="10" height="121" opacity="1" fill="#0000FF" stroke="none"/>
<rect x="311" y="311" width="10" height="133" opacity="1" fill="#0000FF" stroke="none"/>
<rect x="323" y="373" width="10" height="71" opacity="1" fill="#0000FF" stroke="none"/>
<rect x="335" y="378" width="10" height="66" opacity="1" fill="#0000FF" stroke="none"/>
<rect x="347" y="371" width="10" height="73" opacity="1" fill="#0000FF" stroke="none"/>
<rect x="359" y="334" width="10" height="110" opacity="1" fill="#0000FF" stroke="none"/>
<rect x="371" y="300" width="10" height="144" opacity="1" fill="#0000FF" stroke="none"/>
<rect x="383" y="314" width="10" height="130" opacity="1" fill="#0000FF" stroke="none"/>
<rect x="395" y="315" width="10" height="129" opacity="1" fill="#0000FF" stroke="none"/>
<rect x="407" y="267" width="10" height="177" opacity="1" fill="#0000FF" stroke="none"/>
<rect x="419" y="310" width="10" height="134" opacity="1" fill="#0000FF" stroke="none"/>
<rect x="431" y="277" width="10" height="167" opacity="1" fill="#0000FF" stroke="none"/>
<rect x="443" y="342" width="10" height="102" opacity="1" fill="#0000FF" stroke="none"/>
<rect x="455" y="400" width="10" height="44" opacity="1" fill="#0000FF" stroke="none"/>
<rect x="467" y="256" width="10" height="188" opacity="1" fill="#0000FF" stroke="none"/>
<rect x="479" y="351" width="10" height="93" opacity="1" fill="#0000FF" stroke="none"/>
<rect x="491" y="312" width="10" height="132" opacity="1" fill="#0000FF" stroke="none"/>
<rect x="503" y="305" width="10" height="139" opacity="1" fill="#0000FF" stroke="none"/>
<rect x="515" y="409" width="10" height="35" opacity="1" fill="#0000FF" stroke="none"/>
<rect x="527" y="271" width="10" height="173" opacity="1" fill="#0000FF" stroke="none"/>
<rect x="539" y="306" width="10" height="138" opacity="1" fill="#0000FF" stroke="none"/>
<rect x="551" y="391" width="10" height="53" opacity="1" fill="#0000FF" stroke="none"/>
<rect x="562" y="328" width="11" height="116" opacity="1" fill="#0000FF" stroke="none"/>
<rect x="574" y="329" width="11" height="115" opacity="1" fill="#0000FF" stroke="none"/>
<rect x="586" y="362" width="11" height="82" opacity="1" fill="#0000FF" stroke="none"/>
<rect x="598" y="410" width="11" height="34" opacity="1" fill="#0000FF" stroke="none"/>
<rect x="610" y="252" width="11" height="192" opacity="1" fill="#0000FF" stroke="none"/>
<rect x="622" y="443" width="11" height="1" opacity="1" fill="#0000FF" stroke="none"/>
</svg>
